#!OML:ASF H:\Martial Arts Walks\Project 1\Capture day 1\Session 1\male.ASF
:FULLY-SPECIFIED
:DEGREES
2062
root -3.92688 14.1642 -9.9178 13.96 -24.9638 -20.8394
lowerback 11.2858 3.25368 9.97014
upperback -2.09576 6.14364 4.94133
thorax -8.13602 2.61393 -1.36713
lowerneck -2.78915 1.71834 -1.64941
upperneck 7.07103 2.15467 3.25525
head 2.67654 1.12727 1.3993
rclavicle 2.87741e-014 -4.41302e-014
rhumerus -43.7468 13.9918 -82.3349
rradius 46.5817
rwrist 13.0815
rhand -7.09943 -42.0985
rfingers 7.12502
rthumb 18.7752 -71.2124
lclavicle 2.87741e-014 -4.41302e-014
lhumerus -23.5407 1.96673 82.5901
lradius 26.8994
lwrist -19.0873
lhand -27.8712 23.0417
lfingers 7.12502
lthumb -1.2615 53.0177
rfemur 8.52483 -10.2957 21.9477
rtibia 36.6298
rfoot -22.9004 -31.0031
rtoes -29.5168
lfemur -66.6871 21.7147 -2.05172
ltibia 76.6703
lfoot -11.6672 0.662061
ltoes 5.16342
2063
root -3.92598 14.165 -9.91436 13.9412 -24.9735 -20.8218
lowerback 11.2963 3.24707 9.99084
upperback -2.08269 6.13808 4.9482
thorax -8.12704 2.611 -1.37049
lowerneck -2.90422 1.7498 -1.60273
upperneck 7.11656 2.19703 3.21829
head 2.71265 1.14939 1.38313
rclavicle -7.10655e-014 -4.17448e-014
rhumerus -43.651 13.7729 -82.1528
rradius 46.2484
rwrist 12.8026
rhand -7.09722 -42.1293
rfingers 7.12502
rthumb 18.7773 -71.243
lclavicle -7.10655e-014 -4.17448e-014
lhumerus -23.3696 1.75413 82.6687
lradius 27.0098
lwrist -18.9205
lhand -27.6422 23.4284
lfingers 7.12502
lthumb -1.04031 53.4057
rfemur 8.54692 -10.2834 21.921
rtibia 36.6192
rfoot -22.9081 -30.9886
rtoes -29.4908
lfemur -66.6866 21.7486 -2.10292
ltibia 76.6749
lfoot -11.6739 0.649677
ltoes 5.16264
2064
root -3.92599 14.1657 -9.91207 13.9448 -24.9608 -20.7859
lowerback 11.279 3.22882 9.95517
upperback -2.08848 6.10921 4.9772
thorax -8.13283 2.59913 -1.31478
lowerneck -2.90311 1.7758 -1.58574
upperneck 7.06842 2.23564 3.16633
head 2.69567 1.16728 1.36356
rclavicle -2.49475e-014 3.4191e-014
rhumerus -43.5527 13.6142 -81.9612
rradius 45.8716
rwrist 12.5278
rhand -7.1436 -41.9786
rfingers 7.12502
rthumb 18.7327 -71.0966
lclavicle -2.49475e-014 3.4191e-014
lhumerus -23.2538 1.61099 82.7652
lradius 27.1207
lwrist -18.7618
lhand -27.9292 23.3183
lfingers 7.12502
lthumb -1.31752 53.294
rfemur 8.53094 -10.2837 21.8959
rtibia 36.6262
rfoot -22.9467 -30.9828
rtoes -29.393
lfemur -66.7022 21.7459 -2.15245
ltibia 76.6666
lfoot -11.6736 0.636639
ltoes 5.2048
2065
root -3.92576 14.1669 -9.91042 13.9161 -24.9695 -20.6989
lowerback 11.2747 3.21756 9.8858
upperback -2.0788 6.08275 4.97497
thorax -8.1281 2.59024 -1.27501
lowerneck -2.94536 1.80338 -1.54469
upperneck 7.02299 2.27448 3.12697
head 2.68782 1.18664 1.34473
rclavicle 5.07895e-014 6.75868e-015
rhumerus -43.4476 13.5021 -81.8201
rradius 45.5235
rwrist 12.1636
rhand -6.867 -42.2557
rfingers 7.12502
rthumb 18.9987 -71.3478
lclavicle 5.07895e-014 6.75868e-015
lhumerus -23.1221 1.44238 82.8348
lradius 27.2469
lwrist -18.7243
lhand -27.9381 23.5065
lfingers 7.12502
lthumb -1.32611 53.4821
rfemur 8.51143 -10.279 21.8214
rtibia 36.6414
rfoot -22.9216 -31.0128
rtoes -29.3029
lfemur -66.7041 21.7635 -2.25859
ltibia 76.6489
lfoot -11.7004 0.591246
ltoes 5.18127
2066
root -3.92555 14.1669 -9.90842 13.9007 -24.953 -20.6454
lowerback 11.2735 3.19454 9.84869
upperback -2.07872 6.04783 4.98886
thorax -8.13541 2.57517 -1.23458
lowerneck -2.96907 1.84677 -1.5603
upperneck 6.97382 2.33316 3.15088
head 2.67385 1.21623 1.35656
rclavicle -1.82385e-014 1.55052e-014
rhumerus -43.3697 13.4069 -81.6851
rradius 45.1696
rwrist 11.8095
rhand -6.82772 -42.1813
rfingers 7.12502
rthumb 19.0365 -71.2697
lclavicle -1.82385e-014 1.55052e-014
lhumerus -23.0385 1.24017 82.9143
lradius 27.3913
lwrist -18.6554
lhand -27.8931 23.6108
lfingers 7.12502
lthumb -1.28269 53.5867
rfemur 8.50433 -10.2889 21.7787
rtibia 36.658
rfoot -22.9556 -31.0123
rtoes -29.249
lfemur -66.7134 21.7686 -2.31658
ltibia 76.6342
lfoot -11.7309 0.512237
ltoes 5.1387
2067
root -3.92486 14.167 -9.90631 13.9014 -24.9507 -20.6327
lowerback 11.2628 3.18702 9.86077
upperback -2.06843 6.03774 5.00337
thorax -8.11939 2.57101 -1.22305
lowerneck -2.97775 1.85158 -1.5313
upperneck 6.8974 2.34248 3.11133
head 2.6501 1.22029 1.33778
rclavicle -2.0773e-014 0
rhumerus -43.2505 13.3028 -81.551
rradius 44.7993
rwrist 11.4925
rhand -6.55609 -42.3962
rfingers 7.12502
rthumb 19.2977 -71.4587
lclavicle -2.0773e-014 0
lhumerus -22.9567 0.992751 83.0062
lradius 27.5547
lwrist -18.4616
lhand -28.0402 23.3821
lfingers 7.12502
lthumb -1.42474 53.3571
rfemur 8.49905 -10.279 21.7703
rtibia 36.6708
rfoot -23.0002 -31.0054
rtoes -29.1811
lfemur -66.7124 21.8005 -2.33873
ltibia 76.6224
lfoot -11.7602 0.447968
ltoes 5.11947
